<svg xmlns="http://www.w3.org/2000/svg" viewBox="0 0 170.000000 165.000000">
<g fill="#FFFFFF"><g transform="translate(0.000000,165.000000) scale(0.100000,-0.100000)"
 stroke="none">
<path d="M351 1471 c-18 -5 -39 -15 -46 -22 -16 -19 -65 -144 -65 -169 0 -29
50 -50 138 -58 72 -7 77 -9 99 -40 51 -77 51 -173 -2 -384 -30 -115 -50 -284
-41 -346 7 -55 37 -105 72 -121 47 -21 50 -10 38 128 l-7 84 49 98 c27 54 52
98 56 99 18 1 39 -53 48 -126 5 -43 15 -100 21 -125 7 -26 9 -54 6 -63 -4 -10
-34 -29 -67 -43 -82 -36 -80 -76 3 -90 36 -5 170 13 198 28 17 9 39 145 39
248 0 36 4 61 11 61 18 0 50 -20 144 -90 50 -37 105 -75 123 -84 18 -9 35 -23
38 -31 9 -23 -14 -54 -57 -76 -45 -22 -46 -38 -5 -52 63 -21 135 17 167 87 35
77 28 99 -53 163 -120 96 -178 154 -178 177 0 12 18 59 40 105 22 45 40 93 40
106 0 47 -79 182 -152 260 -112 120 -231 196 -393 250 -82 28 -208 40 -264 26z
m489 -579 c0 -33 -32 -67 -55 -59 -34 14 -9 87 30 87 21 0 25 -5 25 -28z"/>
</g></g>
</svg>
