<svg xmlns="http://www.w3.org/2000/svg" viewBox="0 0 180.000000 210.000000">
<g fill="#FFFFFF"><g transform="translate(0.000000,210.000000) scale(0.100000,-0.100000)"
 stroke="none">
<path d="M305 1900 c-3 -5 -2 -18 3 -27 5 -10 12 -42 16 -71 4 -29 29 -141 57
-250 43 -166 51 -216 56 -321 5 -113 8 -128 34 -170 58 -94 116 -368 106 -495
-10 -118 -68 -277 -117 -321 -19 -17 -39 -18 -135 -3 -24 4 -33 -33 -13 -50
24 -19 166 -62 207 -62 38 0 40 1 47 38 7 41 26 82 57 126 18 25 21 26 29 11
6 -9 18 -57 28 -107 11 -50 25 -95 32 -99 24 -15 20 52 -10 171 -25 98 -27
119 -17 145 7 16 15 63 19 103 7 86 21 116 73 163 21 19 46 47 56 62 9 15 22
27 27 27 5 0 25 -34 44 -75 19 -41 75 -132 125 -203 90 -128 125 -192 136
-255 6 -32 3 -38 -49 -83 -51 -45 -54 -50 -39 -66 21 -23 47 -23 81 2 15 11
47 30 72 42 54 27 54 31 21 193 -30 142 -36 157 -110 244 -88 106 -103 192
-44 262 29 34 28 49 -8 145 -22 59 -22 63 -9 194 l14 134 -27 102 c-15 56 -27
121 -27 143 0 35 -7 49 -44 89 -59 64 -66 81 -66 155 0 86 -23 117 -84 117
-48 0 -104 -16 -125 -35 -11 -10 -11 -31 -3 -110 11 -97 27 -135 58 -135 25 0
24 -20 -7 -97 -20 -50 -33 -104 -36 -148 l-6 -71 -86 -52 c-47 -28 -100 -54
-118 -58 l-31 -6 -12 58 c-29 142 -140 636 -145 644 -8 13 -22 13 -30 0z m458
-765 c23 -63 17 -117 -22 -200 -31 -65 -130 -210 -138 -202 -6 7 -38 146 -57
247 -8 42 -11 92 -8 114 7 39 8 40 87 67 106 37 115 35 138 -26z"/>
</g></g>
</svg>
