<svg xmlns="http://www.w3.org/2000/svg" viewBox="0 0 205.000000 155.000000">
<g fill="#FFFFFF"><g transform="translate(0.000000,155.000000) scale(0.100000,-0.100000)"
 stroke="none">
<path d="M290 1471 c-118 -89 -179 -150 -192 -194 -8 -30 -12 -183 -12 -547
-1 -430 1 -509 14 -535 19 -37 89 -91 138 -106 54 -17 1265 -25 1415 -10 173
18 233 57 259 168 15 67 18 724 4 928 l-8 120 -107 108 -107 107 -676 0 -676
0 -52 -39z m1383 -17 c51 -12 52 -17 52 -464 0 -377 -2 -418 -18 -447 -9 -18
-27 -38 -40 -45 -17 -10 -159 -13 -652 -13 -610 0 -631 1 -670 20 -22 11 -45
32 -52 46 -26 55 -36 249 -24 507 12 272 23 358 46 381 11 11 48 17 138 22
145 8 1180 2 1220 -7z m-1438 -116 c3 -13 9 -198 13 -413 9 -435 7 -425 80
-462 35 -17 80 -18 684 -21 724 -3 670 -8 724 70 l29 41 6 391 c3 215 7 392 7
394 8 11 43 -3 66 -27 27 -29 28 -31 37 -214 6 -102 9 -335 7 -519 -4 -390 -2
-382 -103 -433 l-60 -30 -628 -3 c-636 -3 -833 4 -900 32 -69 29 -71 37 -77
351 -3 154 -3 388 0 521 6 261 7 269 69 321 33 28 39 28 46 1z"/>
<path d="M1068 1118 c-13 -10 -18 -40 -23 -128 -8 -137 -4 -146 69 -135 81 13
119 63 80 106 -14 16 -15 23 -4 49 17 41 5 77 -33 100 -37 23 -66 25 -89 8z
m73 -38 c21 -12 25 -50 7 -68 -7 -7 -25 -12 -40 -12 -26 0 -28 3 -28 38 0 53
17 65 61 42z m25 -141 c21 -17 -1 -38 -49 -46 l-37 -6 0 38 c0 38 0 38 36 32
20 -3 42 -11 50 -18z"/>
<path d="M543 1107 c-9 -14 10 -25 47 -29 l35 -3 9 -107 c7 -80 13 -108 22
-108 11 0 14 24 14 111 l0 112 38 -6 c40 -7 74 6 57 22 -13 12 -215 19 -222 8z"/>
<path d="M898 1093 c-41 -47 -118 -193 -118 -224 0 -23 32 -5 47 25 16 34 36
46 80 46 17 0 25 -9 33 -40 6 -24 17 -40 25 -40 19 0 19 8 -5 120 -26 117 -29
130 -39 130 -4 0 -15 -8 -23 -17z m14 -105 c-5 -5 -17 -8 -26 -6 -15 3 -15 5
0 27 15 21 18 22 26 6 7 -11 7 -20 0 -27z"/>
</g></g>
</svg>
