<svg xmlns="http://www.w3.org/2000/svg" viewBox="0 0 120 120">
<rect width="120" height="120" rx="26" fill="#151515" stroke="#2e2e2e" stroke-width="1.5"/>
<g transform="translate(18.00,18.00) scale(1.7500)"><g fill="#FFFFFF"><g transform="translate(0.000000,48.000000) scale(0.100000,-0.100000)"
 stroke="none">
<path d="M120 230 c0 -113 1 -120 20 -120 15 0 20 7 20 28 0 16 9 37 19 46 19
17 22 16 74 -23 63 -48 87 -52 87 -16 0 14 -5 25 -11 25 -6 0 -31 14 -55 32
l-45 32 51 51 c27 28 50 54 50 58 0 4 -10 7 -23 7 -13 0 -47 -22 -82 -54 l-60
-54 -3 54 c-3 46 -6 54 -22 54 -19 0 -20 -8 -20 -120z"/>
</g></g><g fill="#2E7DF6"><g transform="translate(0.000000,48.000000) scale(0.100000,-0.100000)"
 stroke="none">
<path d="M367 393 c-4 -3 -7 -17 -7 -30 0 -29 34 -32 49 -5 15 28 -21 57 -42
35z"/>
</g></g></g>
</svg>
