<svg xmlns="http://www.w3.org/2000/svg" viewBox="0 0 1200 1160" width="1200" height="1160">
  <rect width="1200" height="1400" fill="#000000"/>

  <!-- ============ TITLE ============ -->
  <text x="600" y="140" text-anchor="middle" font-family="Helvetica Neue, Arial, sans-serif"
        font-size="62" font-weight="800" letter-spacing="10">
    <tspan fill="#E6C15A">HARNESSING QUANTUM</tspan><tspan fill="#D97757" dx="18">2026</tspan>
  </text>
  <text x="600" y="196" text-anchor="middle" font-family="Helvetica Neue, Arial, sans-serif"
        font-size="24" font-weight="500" letter-spacing="8" fill="#7d7d7d">AI AGENTS × QUANTUM SIMULATION</text>

  <!-- ============ EVOLUTION ============ -->
  <!-- figure fill colors: near side light, far side darker for depth -->
  <defs>
    <g id="chimp">
      <!-- far limbs -->
      <path d="M 18,-94 L 26,-50 L 32,-4" stroke="#9a9a9a" stroke-width="14" fill="none" stroke-linecap="round" stroke-linejoin="round"/>
      <path d="M -28,-90 L -38,-48 L -30,-4" stroke="#9a9a9a" stroke-width="15" fill="none" stroke-linecap="round" stroke-linejoin="round"/>
      <!-- torso: shoulders slightly higher than hips -->
      <path d="M -20,-92 L 26,-96" stroke="#e8e8e8" stroke-width="26" fill="none" stroke-linecap="round"/>
      <!-- near limbs -->
      <path d="M 26,-96 L 40,-52 L 50,-4" stroke="#e8e8e8" stroke-width="15" fill="none" stroke-linecap="round" stroke-linejoin="round"/>
      <path d="M -20,-92 L -6,-50 L 0,-4" stroke="#e8e8e8" stroke-width="16" fill="none" stroke-linecap="round" stroke-linejoin="round"/>
      <!-- head: low, in line with the back -->
      <circle cx="56" cy="-95" r="18" fill="#e8e8e8"/>
      <circle cx="69" cy="-89" r="8" fill="#e8e8e8"/>
    </g>

    <g id="hominin">
      <!-- far limbs -->
      <path d="M 10,-152 L 14,-112 L 18,-84" stroke="#9a9a9a" stroke-width="12" fill="none" stroke-linecap="round" stroke-linejoin="round"/>
      <path d="M -6,-103 L -16,-56 L -24,-3" stroke="#9a9a9a" stroke-width="14" fill="none" stroke-linecap="round" stroke-linejoin="round"/>
      <!-- torso (leaning) -->
      <path d="M 0,-105 L 16,-156" stroke="#e8e8e8" stroke-width="23" fill="none" stroke-linecap="round"/>
      <!-- near limbs -->
      <path d="M 16,-156 L 26,-116 L 32,-86" stroke="#e8e8e8" stroke-width="13" fill="none" stroke-linecap="round" stroke-linejoin="round"/>
      <path d="M 0,-105 L 12,-58 L 18,-3" stroke="#e8e8e8" stroke-width="15" fill="none" stroke-linecap="round" stroke-linejoin="round"/>
      <!-- head -->
      <circle cx="32" cy="-178" r="16" fill="#e8e8e8"/>
    </g>

    <g id="human">
      <!-- far limbs -->
      <path d="M 0,-166 L -14,-136 L -22,-108" stroke="#9a9a9a" stroke-width="12" fill="none" stroke-linecap="round" stroke-linejoin="round"/>
      <path d="M -2,-106 L -18,-58 L -32,-3" stroke="#9a9a9a" stroke-width="14" fill="none" stroke-linecap="round" stroke-linejoin="round"/>
      <!-- torso upright -->
      <path d="M 0,-106 L 3,-170" stroke="#e8e8e8" stroke-width="23" fill="none" stroke-linecap="round"/>
      <!-- near limbs -->
      <path d="M 3,-168 L 18,-138 L 28,-110" stroke="#e8e8e8" stroke-width="13" fill="none" stroke-linecap="round" stroke-linejoin="round"/>
      <path d="M 0,-106 L 22,-60 L 36,-3" stroke="#e8e8e8" stroke-width="15" fill="none" stroke-linecap="round" stroke-linejoin="round"/>
      <!-- head -->
      <circle cx="6" cy="-198" r="17" fill="#e8e8e8"/>
    </g>
  </defs>

  <use href="#chimp" x="0" y="0" transform="translate(170,610)"/>
  <use href="#hominin" transform="translate(360,610)"/>
  <use href="#human" transform="translate(540,610)"/>

  <!-- arrow from human to agents -->
  <path d="M 610,480 L 668,480" stroke="#8a8a8a" stroke-width="5" fill="none"/>
  <path d="M 662,468 L 684,480 L 662,492 Z" fill="#8a8a8a"/>

  <!-- ============ 2x2 AGENT MARKS ============ -->
  <!-- tiles: 120x120, gap 24, block origin (710,352) -->
  <g>
    <!-- Claude starburst -->
    <rect x="710" y="352" width="120" height="120" rx="26" fill="#151515" stroke="#2e2e2e" stroke-width="1.5"/>
    <!-- REAL:CLAUDE begin -->
    <g transform="translate(736.00,378.00) scale(0.2742)" fill="#D97757">
      <path d="M52.4285 162.873L98.7844 136.879L99.5485 134.602L98.7844 133.334H96.4921L88.7237 132.862L62.2346 132.153L39.3113 131.207L17.0249 130.026L11.4214 128.844L6.2 121.873L6.7094 118.447L11.4214 115.257L18.171 115.847L33.0711 116.911L55.485 118.447L71.6586 119.392L95.728 121.873H99.5485L100.058 120.337L98.7844 119.392L97.7656 118.447L74.5877 102.732L49.4995 86.1905L36.3823 76.62L29.3779 71.7757L25.8121 67.2858L24.2839 57.3608L30.6515 50.2716L39.3113 50.8623L41.4763 51.4531L50.2636 58.1879L68.9842 72.7209L93.4357 90.6804L97.0015 93.6343L98.4374 92.6652L98.6571 91.9801L97.0015 89.2625L83.757 65.2772L69.621 40.8192L63.2534 30.6579L61.5978 24.632C60.9565 22.1032 60.579 20.0111 60.579 17.4246L67.8381 7.49965L71.9133 6.19995L81.7193 7.49965L85.7946 11.0443L91.9074 24.9865L101.714 46.8451L116.996 76.62L121.453 85.4816L123.873 93.6343L124.764 96.1155H126.292V94.6976L127.566 77.9197L129.858 57.3608L132.15 30.8942L132.915 23.4505L136.608 14.4708L143.994 9.62643L149.725 12.344L154.437 19.0788L153.8 23.4505L150.998 41.6463L145.522 70.1215L141.957 89.2625H143.994L146.414 86.7813L156.093 74.0206L172.266 53.698L179.398 45.6635L187.803 36.802L193.152 32.5484H203.34L210.726 43.6549L207.415 55.1159L196.972 68.3492L188.312 79.5739L175.896 96.2095L168.191 109.585L168.882 110.689L170.738 110.53L198.755 104.504L213.91 101.787L231.994 98.7149L240.144 102.496L241.036 106.395L237.852 114.311L218.495 119.037L195.826 123.645L162.07 131.592L161.696 131.893L162.137 132.547L177.36 133.925L183.855 134.279H199.774L229.447 136.524L237.215 141.605L241.8 147.867L241.036 152.711L229.065 158.737L213.019 154.956L175.45 145.977L162.587 142.787H160.805V143.85L171.502 154.366L191.242 172.089L215.82 195.011L217.094 200.682L213.91 205.172L210.599 204.699L188.949 188.394L180.544 181.069L161.696 165.118H160.422V166.772L164.752 173.152L187.803 207.771L188.949 218.405L187.294 221.832L181.308 223.959L174.813 222.777L161.187 203.754L147.305 182.486L136.098 163.345L134.745 164.2L128.075 235.42L125.019 239.082L117.887 241.8L111.902 237.31L108.718 229.984L111.902 215.452L115.722 196.547L118.779 181.541L121.58 162.873L123.291 156.636L123.14 156.219L121.773 156.449L107.699 175.752L86.304 204.699L69.3663 222.777L65.291 224.431L58.2867 220.768L58.9235 214.27L62.8713 208.48L86.304 178.705L100.44 160.155L109.551 149.507L109.462 147.967L108.959 147.924L46.6977 188.512L35.6182 189.93L30.7788 185.44L31.4156 178.115L33.7079 175.752L52.4285 162.873Z"/>
    </g>
    <!-- REAL:CLAUDE end -->

    <!-- ChatGPT knot (approximation: 6 interlocking arcs) -->
    <rect x="854" y="352" width="120" height="120" rx="26" fill="#151515" stroke="#2e2e2e" stroke-width="1.5"/>
    <!-- REAL:OPENAI begin -->
    <g transform="translate(881.45,379.00) scale(0.8148)" fill="#FFFFFF">
      <path d="M74.6,33.1c1.8-5.5,1.2-11.6-1.7-16.6c-4.4-7.7-13.3-11.6-22-9.8C47.1,2.4,41.5,0,35.7,0
		C26.8,0,19,5.7,16.2,14.1c-5.7,1.2-10.6,4.7-13.5,9.8c-4.4,7.7-3.4,17.3,2.5,23.9C3.4,53.4,4.1,59.4,7,64.4
		c4.4,7.7,13.3,11.7,22,9.8c3.9,4.3,9.4,6.8,15.2,6.8c8.9,0,16.7-5.7,19.5-14.1c5.7-1.2,10.6-4.7,13.5-9.8
		C81.6,49.4,80.6,39.7,74.6,33.1z M44.2,75.7c-3.6,0-7-1.2-9.7-3.5c0.1-0.1,0.4-0.2,0.5-0.3l16.1-9.3c0.8-0.5,1.3-1.3,1.3-2.3V37.6
		l6.8,3.9c0.1,0,0.1,0.1,0.1,0.2v18.8C59.4,68.9,52.6,75.7,44.2,75.7z M11.6,61.8c-1.8-3.1-2.4-6.7-1.8-10.2
		c0.1,0.1,0.3,0.2,0.5,0.3l16.1,9.3c0.8,0.5,1.8,0.5,2.6,0l19.7-11.4v7.9c0,0.1,0,0.2-0.1,0.2l-16.3,9.4
		C25.1,71.5,15.8,69,11.6,61.8L11.6,61.8z M7.4,26.6c1.8-3.1,4.6-5.4,7.9-6.7v19.2c0,0.9,0.5,1.8,1.3,2.3l19.7,11.4l-6.8,3.9
		c-0.1,0-0.2,0.1-0.2,0l-16.3-9.4C5.6,43.1,3.2,33.8,7.4,26.6L7.4,26.6z M63.4,39.6L43.7,28.2l6.8-3.9c0.1,0,0.2-0.1,0.2,0L67,33.7
		c7.3,4.2,9.7,13.5,5.5,20.7c-1.8,3.1-4.6,5.4-7.9,6.6V41.9C64.7,41,64.2,40.1,63.4,39.6L63.4,39.6z M70.1,29.4
		c-0.1-0.1-0.3-0.2-0.5-0.3l-16.1-9.3c-0.8-0.5-1.8-0.5-2.6,0L31.2,31.2v-7.9c0-0.1,0-0.2,0.1-0.2l16.3-9.4
		c7.3-4.2,16.5-1.7,20.7,5.6C70.1,22.3,70.7,25.9,70.1,29.4L70.1,29.4z M27.5,43.4l-6.8-3.9c-0.1,0-0.1-0.1-0.1-0.2V20.5
		c0-8.4,6.8-15.2,15.2-15.2c3.6,0,7,1.2,9.7,3.5c-0.1,0.1-0.3,0.2-0.5,0.3l-16.1,9.3c-0.8,0.5-1.3,1.3-1.3,2.3V43.4z M31.2,35.4
		l8.8-5.1l8.8,5.1v10.1l-8.8,5.1l-8.8-5.1L31.2,35.4z"/>
    </g>
    <!-- REAL:OPENAI end -->

    <!-- DeepSeek whale -->
    <rect x="710" y="496" width="120" height="120" rx="26" fill="#151515" stroke="#2e2e2e" stroke-width="1.5"/>
    <!-- REAL:DEEPSEEK begin -->
    <g transform="translate(736.00,522.00) scale(2.8333)" fill="#4D6BFE">
      <path d="M23.748 4.482c-.254-.124-.364.113-.512.234-.051.039-.094.09-.137.136-.372.397-.806.657-1.373.626-.829-.046-1.537.214-2.163.848-.133-.782-.575-1.248-1.247-1.548-.352-.156-.708-.311-.955-.65-.172-.241-.219-.51-.305-.774-.055-.16-.11-.323-.293-.35-.2-.031-.278.136-.356.276-.313.572-.434 1.202-.422 1.84.027 1.436.633 2.58 1.838 3.393.137.093.172.187.129.323-.082.28-.18.552-.266.833-.055.179-.137.217-.329.14a5.526 5.526 0 01-1.736-1.18c-.857-.828-1.631-1.742-2.597-2.458a11.365 11.365 0 00-.689-.471c-.985-.957.13-1.743.388-1.836.27-.098.093-.432-.779-.428-.872.004-1.67.295-2.687.684a3.055 3.055 0 01-.465.137 9.597 9.597 0 00-2.883-.102c-1.885.21-3.39 1.102-4.497 2.623C.082 8.606-.231 10.684.152 12.85c.403 2.284 1.569 4.175 3.36 5.653 1.858 1.533 3.997 2.284 6.438 2.14 1.482-.085 3.133-.284 4.994-1.86.47.234.962.327 1.78.397.63.059 1.236-.03 1.705-.128.735-.156.684-.837.419-.961-2.155-1.004-1.682-.595-2.113-.926 1.096-1.296 2.746-2.642 3.392-7.003.05-.347.007-.565 0-.845-.004-.17.035-.237.23-.256a4.173 4.173 0 001.545-.475c1.396-.763 1.96-2.015 2.093-3.517.02-.23-.004-.467-.247-.588zM11.581 18c-2.089-1.642-3.102-2.183-3.52-2.16-.392.024-.321.471-.235.763.09.288.207.486.371.739.114.167.192.416-.113.603-.673.416-1.842-.14-1.897-.167-1.361-.802-2.5-1.86-3.301-3.307-.774-1.393-1.224-2.887-1.298-4.482-.02-.386.093-.522.477-.592a4.696 4.696 0 011.529-.039c2.132.312 3.946 1.265 5.468 2.774.868.86 1.525 1.887 2.202 2.891.72 1.066 1.494 2.082 2.48 2.914.348.292.625.514.891.677-.802.09-2.14.11-3.054-.614zm1-6.44a.306.306 0 01.415-.287.302.302 0 01.2.288.306.306 0 01-.31.307.303.303 0 01-.304-.308zm3.11 1.596c-.2.081-.399.151-.59.16a1.245 1.245 0 01-.798-.254c-.274-.23-.47-.358-.552-.758a1.73 1.73 0 01.016-.588c.07-.327-.008-.537-.239-.727-.187-.156-.426-.199-.688-.199a.559.559 0 01-.254-.078c-.11-.054-.2-.19-.114-.358.028-.054.16-.186.192-.21.356-.202.767-.136 1.146.016.352.144.618.408 1.001.782.391.451.462.576.685.914.176.265.336.537.445.848.067.195-.019.354-.25.452z"/>
    </g>
    <!-- REAL:DEEPSEEK end -->

    <!-- Kimi K mark (hand-traced from official kimi.com favicon) -->
    <rect x="854" y="496" width="120" height="120" rx="26" fill="#151515" stroke="#2e2e2e" stroke-width="1.5"/>
    <g transform="translate(914,556)" stroke="#ffffff" fill="none" stroke-linecap="round">
      <path d="M -14,-26 Q -19,0 -12,27" stroke-width="9.5"/>
      <path d="M -9,-3 L 15,-25" stroke-width="8.5"/>
      <path d="M -9,1 Q 3,11 15,27" stroke-width="8.5"/>
      <circle cx="24" cy="-30" r="4.6" fill="#2E7DF6" stroke="none"/>
      <circle cx="30" cy="-17" r="2.6" fill="#2E7DF6" stroke="none"/>
      <rect x="-27" y="27" width="5.5" height="5.5" rx="1" fill="#ffffff" stroke="none" transform="rotate(-8 -24 30)"/>
      <path d="M 26,29 L 33,29 L 29.5,35 Z" fill="#ffffff" stroke="none"/>
    </g>
  </g>

  <!-- ============ PERMISSION PUNCHLINE ============ -->
  <g font-family="Menlo, Courier New, monospace" font-size="30">
    <rect x="270" y="740" width="660" height="240" rx="14" fill="#0d1117" stroke="#2a2f36" stroke-width="1.5"/>
    <circle cx="302" cy="770" r="6" fill="#3a3a3a"/>
    <circle cx="322" cy="770" r="6" fill="#3a3a3a"/>
    <circle cx="342" cy="770" r="6" fill="#3a3a3a"/>
    <text x="300" y="826" fill="#8b949e">$ agent requests permission:</text>
    <text x="312" y="892" fill="#D97757" font-weight="bold" font-size="38">❯ 1. YOLO</text>
    <text x="312" y="946" fill="#5a6169"># the only mode</text>
  </g>

  <!-- ============ FOOTER ============ -->
  <text x="600" y="1105" text-anchor="middle" font-family="Helvetica Neue, Arial, sans-serif"
        font-size="25" font-weight="500" letter-spacing="7" fill="#8a8a8a">EMBRACE AGENTS · HEFEI NATIONAL LABORATORY · JUL 27–31</text>
</svg>
